<svg width="16" height="16" viewBox="0 0 16 16" fill="none" xmlns="http://www.w3.org/2000/svg">
<path id="Vector" d="M2.89884 1.68267C2.89884 1.35166 3.03034 1.0342 3.2644 0.800132C3.49847 0.566067 3.81593 0.43457 4.14694 0.43457H14.1318C14.4628 0.43457 14.7803 0.566067 15.0143 0.800132C15.2484 1.0342 15.3799 1.35166 15.3799 1.68267V11.6675C15.3799 11.9985 15.2484 12.316 15.0143 12.5501C14.7803 12.7841 14.4628 12.9156 14.1318 12.9156C13.8008 12.9156 13.4833 12.7841 13.2492 12.5501C13.0152 12.316 12.8837 11.9985 12.8837 11.6675V4.6956L2.53315 15.0461C2.29775 15.2735 1.98248 15.3993 1.65523 15.3964C1.32798 15.3936 1.01494 15.2623 0.78353 15.0309C0.552122 14.7995 0.42086 14.4865 0.418016 14.1592C0.415172 13.832 0.540975 13.5167 0.768327 13.2813L11.1189 2.93078H4.14694C3.81593 2.93078 3.49847 2.79928 3.2644 2.56522C3.03034 2.33115 2.89884 2.01369 2.89884 1.68267Z" fill="white"/>
</svg>
