<svg width="26" height="26" viewBox="0 0 26 26" fill="none" xmlns="http://www.w3.org/2000/svg">
<g id="Group 14445">
<path id="Vector" d="M19.0536 18.9688C17.2858 20.3163 15.1333 21.0628 12.9108 21.0991C5.67174 21.0991 1.53516 12.8259 1.53516 12.8259C2.82152 10.4287 4.60568 8.33423 6.76794 6.6831M10.7391 4.80096C11.4509 4.63433 12.1797 4.55104 12.9108 4.55276C20.1498 4.55276 24.2864 12.8259 24.2864 12.8259C23.6586 14.0003 22.91 15.106 22.0526 16.1249M15.1032 15.0183C14.8191 15.3231 14.4766 15.5676 14.0961 15.7372C13.7155 15.9067 13.3047 15.9979 12.8881 16.0053C12.4715 16.0126 12.0578 15.936 11.6715 15.78C11.2851 15.6239 10.9342 15.3917 10.6396 15.0971C10.345 14.8025 10.1128 14.4516 9.95674 14.0652C9.8007 13.6789 9.72407 13.2652 9.73142 12.8486C9.73877 12.432 9.82995 12.0212 9.99952 11.6406C10.1691 11.2601 10.4136 10.9176 10.7184 10.6335" stroke="white" stroke-width="2" stroke-linecap="round" stroke-linejoin="round"/>
<path id="Vector_2" d="M1.53516 1.4502L24.2864 24.2014" stroke="white" stroke-width="2" stroke-linecap="round" stroke-linejoin="round"/>
</g>
</svg>
