<svg width="14" height="14" viewBox="0 0 14 14" fill="none" xmlns="http://www.w3.org/2000/svg">
<path d="M7.15392 13.5119C3.55986 13.5119 0.646484 10.5986 0.646484 7.0045C0.646484 3.41045 3.55986 0.49707 7.15392 0.49707C10.748 0.49707 13.6613 3.41045 13.6613 7.0045C13.6613 10.5986 10.748 13.5119 7.15392 13.5119ZM6.50317 8.95673V10.2582H7.80466V8.95673H6.50317ZM7.80466 7.88626C8.32764 7.72863 8.77661 7.38841 9.06981 6.92755C9.363 6.46668 9.48091 5.91584 9.40206 5.37534C9.32321 4.83485 9.05285 4.34065 8.64022 3.98275C8.22759 3.62485 7.70013 3.42707 7.15392 3.42541C6.62737 3.42537 6.11706 3.60772 5.70978 3.94145C5.3025 4.27518 5.02339 4.73968 4.91991 5.25595L6.19667 5.5117C6.23291 5.33042 6.31987 5.16316 6.44745 5.02938C6.57502 4.89559 6.73797 4.80079 6.91732 4.75599C7.09667 4.7112 7.28506 4.71825 7.46056 4.77634C7.63606 4.83442 7.79146 4.94115 7.90867 5.0841C8.02588 5.22705 8.10009 5.40035 8.12266 5.58383C8.14524 5.76731 8.11524 5.95342 8.03617 6.12052C7.9571 6.28762 7.83221 6.42883 7.67602 6.52772C7.51984 6.62661 7.33878 6.67912 7.15392 6.67913C6.98133 6.67913 6.81581 6.74769 6.69377 6.86973C6.57173 6.99177 6.50317 7.15729 6.50317 7.32987V8.30599H7.80466V7.88626Z" fill="black"/>
</svg>
